<?xml version="1.0" encoding="UTF-8" standalone="no"?>
<!-- Created with Inkscape (http://www.inkscape.org/) -->

<svg
   xmlns:dc="http://purl.org/dc/elements/1.1/"
   xmlns:cc="http://creativecommons.org/ns#"
   xmlns:rdf="http://www.w3.org/1999/02/22-rdf-syntax-ns#"
   xmlns:svg="http://www.w3.org/2000/svg"
   xmlns="http://www.w3.org/2000/svg"
   xmlns:sodipodi="http://sodipodi.sourceforge.net/DTD/sodipodi-0.dtd"
   xmlns:inkscape="http://www.inkscape.org/namespaces/inkscape"
   width="153.97607mm"
   height="97.238174mm"
   viewBox="0 0 153.97607 97.238174"
   version="1.1"
   id="svg986"
   inkscape:version="0.92.3 (unknown)"
   sodipodi:docname="serpiente.svg">
  <defs
     id="defs980" />
  <sodipodi:namedview
     id="base"
     pagecolor="#ffffff"
     bordercolor="#666666"
     borderopacity="1.0"
     inkscape:pageopacity="0.0"
     inkscape:pageshadow="2"
     inkscape:zoom="1.4"
     inkscape:cx="189.9225"
     inkscape:cy="139.27433"
     inkscape:document-units="mm"
     inkscape:current-layer="layer1"
     showgrid="false"
     inkscape:window-width="1920"
     inkscape:window-height="1027"
     inkscape:window-x="0"
     inkscape:window-y="0"
     inkscape:window-maximized="1"
     fit-margin-top="0"
     fit-margin-left="0"
     fit-margin-right="0"
     fit-margin-bottom="0" />
  <metadata
     id="metadata983">
    <rdf:RDF>
      <cc:Work
         rdf:about="">
        <dc:format>image/svg+xml</dc:format>
        <dc:type
           rdf:resource="http://purl.org/dc/dcmitype/StillImage" />
        <dc:title></dc:title>
      </cc:Work>
    </rdf:RDF>
  </metadata>
  <g
     inkscape:label="Capa 1"
     inkscape:groupmode="layer"
     id="layer1"
     transform="translate(-32.501361,-8.0323223)">
    <g
       id="g1572"
       transform="translate(14.254693,-39.545718)">
      <g
         transform="translate(-19.087798,-18.709821)"
         id="g1563">
        <path
           style="fill:none;stroke:#000000;stroke-width:0.26458332px;stroke-linecap:butt;stroke-linejoin:miter;stroke-opacity:1"
           d="m 54.61756,114.4375 c -6.477668,7.47805 -8.983623,24.05867 -4.470779,28.8432 6.087908,6.45443 8.344044,6.19728 20.290313,7.45905 17.349755,1.83249 37.095676,-0.78219 46.636546,-11.64895 10.75741,-12.25236 13.70525,-32.21016 25.438,-47.19954 0,0 10.22555,-24.212739 26.08396,-25.1479 4.11825,-0.242852 9.13018,-1.321763 13.31767,2.535133 0,0 8.99044,3.335113 9.25359,5.838984 0.32169,3.060835 -6.20011,7.421244 -19.137,11.684537 0,0 -20.08344,13.650366 -25.94207,38.218826 0,0 -3.59077,30.0491 -32.50595,35.52975 0,0 -30.92457,4.8344 -48.948278,1.89214 -11.048759,-4.25397 -11.790202,-2.53482 -21.027035,-11.17945 -3.58046,-3.3509 -7.279465,-7.5858 -5.808908,-20.19482 0,0 0.201311,-10.61507 6.590693,-19.65252 2.436456,-3.44624 6.251182,-6.53024 10.020471,-7.41584 9.469193,-2.2248 13.13772,-7.28737 9.469193,-2.2248 -9.456556,13.05005 -9.260416,12.6622 -9.260416,12.6622 z"
           id="path1533"
           inkscape:connector-curvature="0"
           sodipodi:nodetypes="cssscccscsccscsssc" />
        <path
           style="fill:#000000;fill-opacity:1;stroke:#000000;stroke-width:0.2872172;stroke-linejoin:round;stroke-miterlimit:4;stroke-dasharray:none;stroke-dashoffset:0;stroke-opacity:1"
           id="path1554"
           sodipodi:type="arc"
           sodipodi:cx="172.22507"
           sodipodi:cy="73.416588"
           sodipodi:rx="1.2284017"
           sodipodi:ry="3.0487785"
           sodipodi:start="0.18003833"
           sodipodi:end="5.9483647"
           d="m 173.43361,73.962524 a 1.2284017,3.0487785 0 0 1 -1.27156,2.498828 1.2284017,3.0487785 0 0 1 -1.16171,-2.809051 1.2284017,3.0487785 0 0 1 0.97334,-3.219965 1.2284017,3.0487785 0 0 1 1.41157,1.982424 l -1.16018,1.001828 z" />
        <path
           style="fill:none;stroke:#000000;stroke-width:0.66500002;stroke-linecap:butt;stroke-linejoin:miter;stroke-miterlimit:4;stroke-dasharray:none;stroke-opacity:1"
           d="m 174.24702,80.419643 16.44197,-3.590774"
           id="path1556"
           inkscape:connector-curvature="0" />
      </g>
      <path
         inkscape:connector-curvature="0"
         id="path1565"
         d="m 52.282241,144.26619 c -3.953103,-0.33721 -6.597544,-0.72311 -7.637426,-1.11452 -0.641863,-0.2416 -3.204382,-1.13251 -5.694489,-1.9798 -4.834951,-1.64517 -6.406129,-2.38056 -8.730507,-4.0863 -2.999115,-2.20089 -7.16603,-6.10389 -8.484851,-7.94746 -2.713633,-3.79336 -3.565475,-8.82451 -2.826922,-16.6964 0.354126,-3.77449 0.523348,-4.85221 1.159632,-7.38532 2.228455,-8.871676 6.847017,-15.628232 12.699454,-18.578201 0.544558,-0.274489 2.163329,-0.834773 3.597273,-1.245079 2.91652,-0.83453 5.68798,-1.930082 7.755866,-3.065883 0.760063,-0.41747 1.409295,-0.728893 1.442744,-0.692055 0.06347,0.0699 -8.446641,11.791752 -10.807269,14.885961 -3.716245,4.871107 -6.127469,12.605567 -6.132549,19.671347 -0.0042,5.83926 1.080717,8.1798 5.389684,11.6274 3.547255,2.83816 5.496565,3.38275 15.88948,4.43915 12.05117,1.22495 21.287944,0.76145 30.066636,-1.50875 3.616084,-0.93513 6.037297,-1.8092 8.882441,-3.20662 7.287342,-3.57924 11.853562,-8.63867 16.811392,-18.62722 0.98026,-1.97493 3.19578,-6.90752 4.92337,-10.96131 4.86014,-11.404282 8.0156,-17.546283 11.57751,-22.535237 0.7514,-1.052446 2.02924,-3.216137 2.83964,-4.808199 5.28877,-10.390005 12.22802,-18.033507 18.92317,-20.843655 1.91775,-0.804934 3.74773,-1.194864 6.74138,-1.436449 5.96182,-0.481116 8.69552,0.0036 11.32022,2.007039 0.4945,0.377455 1.24996,0.810077 1.67882,0.961379 1.55509,0.548654 5.34279,2.503654 6.48846,3.348988 1.33652,0.986152 1.83936,1.77079 1.65954,2.589548 -0.14542,0.662064 0.68009,0.430027 -9.11641,2.562482 -7.4216,1.615501 -7.60677,1.666753 -7.60677,2.105562 0,0.339296 0.0812,0.425934 0.33073,0.352763 0.99118,-0.290681 15.22985,-3.329709 15.29506,-3.264497 0.0427,0.04265 -0.39514,0.49885 -0.97288,1.013777 -2.33086,2.077461 -7.70545,4.77842 -13.92686,6.998832 -2.8655,1.022689 -3.28979,1.23426 -4.7247,2.355922 -6.69494,5.233379 -13.26798,12.884528 -17.74343,20.653703 -3.09537,5.37343 -5.64305,11.937522 -6.70434,17.273742 -0.97994,4.92719 -2.18207,8.5365 -4.25518,12.7759 -5.3587,10.9583 -13.88653,18.09292 -25.207829,21.08958 -3.200345,0.84711 -13.55371,2.13782 -23.449941,2.92342 -3.527304,0.28001 -19.251761,0.53399 -21.450149,0.34646 z M 153.56956,57.829659 c 0.41405,-0.221594 0.95524,-1.504516 0.95524,-2.264457 0,-0.384424 -0.11398,-0.586582 -0.37798,-0.67037 -0.20788,-0.06598 -0.37797,-0.186097 -0.37797,-0.266927 0,-0.08083 0.17009,-0.30089 0.37797,-0.489025 0.46614,-0.421846 0.46848,-0.72735 0.0133,-1.729877 -0.44617,-0.982612 -1.01098,-1.204307 -1.61722,-0.63477 -1.10473,1.037831 -1.13313,4.636704 -0.0459,5.813679 0.43878,0.474996 0.57807,0.506391 1.07257,0.241747 z"
         style="fill:#008000;fill-opacity:1;stroke:#000000;stroke-width:0.47499999;stroke-linejoin:round;stroke-miterlimit:4;stroke-dasharray:none;stroke-dashoffset:0;stroke-opacity:1" />
    </g>
    <path
       sodipodi:type="star"
       style="fill:#000000;fill-opacity:1;stroke:#000000;stroke-width:0.66499996;stroke-linejoin:round;stroke-miterlimit:4;stroke-dasharray:none;stroke-dashoffset:0;stroke-opacity:1"
       id="path1576"
       sodipodi:sides="3"
       sodipodi:cx="47.843933"
       sodipodi:cy="52.06493"
       sodipodi:r1="4.5514359"
       sodipodi:r2="2.275718"
       sodipodi:arg1="-3.0584514"
       sodipodi:arg2="-2.0112539"
       inkscape:flatsided="true"
       inkscape:rounded="0"
       inkscape:randomized="0"
       d="m 43.308219,51.686954 7.130908,-3.36108 -0.654674,7.856088 z"
       inkscape:transform-center-x="0.88323384"
       inkscape:transform-center-y="0.19282033"
       transform="matrix(1.0515375,-0.01479795,0.25741127,1.1978568,-17.027633,-10.382517)" />
    <path
       sodipodi:type="star"
       style="fill:#000000;fill-opacity:1;stroke:#000000;stroke-width:0.66499996;stroke-linejoin:round;stroke-miterlimit:4;stroke-dasharray:none;stroke-dashoffset:0;stroke-opacity:1"
       id="path1576-2"
       sodipodi:sides="3"
       sodipodi:cx="47.843933"
       sodipodi:cy="52.06493"
       sodipodi:r1="4.5514359"
       sodipodi:r2="2.275718"
       sodipodi:arg1="-3.0584514"
       sodipodi:arg2="-2.0112539"
       inkscape:flatsided="true"
       inkscape:rounded="0"
       inkscape:randomized="0"
       d="m 43.308219,51.686954 7.130908,-3.36108 -0.654674,7.856088 z"
       inkscape:transform-center-x="-0.53282783"
       inkscape:transform-center-y="-0.85518818"
       transform="matrix(0.95311905,-0.85086818,0.94654703,0.81648618,-55.567585,59.75832)" />
    <path
       sodipodi:type="star"
       style="fill:#000000;fill-opacity:1;stroke:#000000;stroke-width:0.66499996;stroke-linejoin:round;stroke-miterlimit:4;stroke-dasharray:none;stroke-dashoffset:0;stroke-opacity:1"
       id="path1576-7"
       sodipodi:sides="3"
       sodipodi:cx="47.843933"
       sodipodi:cy="52.06493"
       sodipodi:r1="4.5514359"
       sodipodi:r2="2.275718"
       sodipodi:arg1="-3.0584514"
       sodipodi:arg2="-2.0112539"
       inkscape:flatsided="true"
       inkscape:rounded="0"
       inkscape:randomized="0"
       d="m 43.308219,51.686954 7.130908,-3.36108 -0.654674,7.856088 z"
       inkscape:transform-center-x="0.51113033"
       inkscape:transform-center-y="-0.13556764"
       transform="matrix(1.0191916,-0.15779831,-0.2320848,1.1762384,6.3554698,37.945765)" />
    <path
       sodipodi:type="star"
       style="fill:#000000;fill-opacity:1;stroke:#000000;stroke-width:0.66499996;stroke-linejoin:round;stroke-miterlimit:4;stroke-dasharray:none;stroke-dashoffset:0;stroke-opacity:1"
       id="path1576-4"
       sodipodi:sides="3"
       sodipodi:cx="47.843933"
       sodipodi:cy="52.06493"
       sodipodi:r1="4.5514359"
       sodipodi:r2="2.275718"
       sodipodi:arg1="-3.0584514"
       sodipodi:arg2="-2.0112539"
       inkscape:flatsided="true"
       inkscape:rounded="0"
       inkscape:randomized="0"
       d="m 43.308219,51.686954 7.130908,-3.36108 -0.654674,7.856088 z"
       inkscape:transform-center-x="-1.6249627"
       inkscape:transform-center-y="-0.3837813"
       transform="matrix(0.81915198,1.0413135,-1.2315901,0.51746906,61.16669,0.96908864)" />
    <path
       sodipodi:type="star"
       style="fill:#000000;fill-opacity:1;stroke:#000000;stroke-width:0.66499996;stroke-linejoin:round;stroke-miterlimit:4;stroke-dasharray:none;stroke-dashoffset:0;stroke-opacity:1"
       id="path1576-7-9"
       sodipodi:sides="3"
       sodipodi:cx="47.843933"
       sodipodi:cy="52.06493"
       sodipodi:r1="4.5514359"
       sodipodi:r2="2.275718"
       sodipodi:arg1="-3.0584514"
       sodipodi:arg2="-2.0112539"
       inkscape:flatsided="true"
       inkscape:rounded="0"
       inkscape:randomized="0"
       d="m 43.308219,51.686954 7.130908,-3.36108 -0.654674,7.856088 z"
       inkscape:transform-center-x="1.4874506"
       inkscape:transform-center-y="-0.13008498"
       transform="matrix(2.9659659,-0.15141373,-0.67539373,1.1286473,39.852708,-9.9061222)" />
    <path
       sodipodi:type="star"
       style="fill:#000000;fill-opacity:1;stroke:#000000;stroke-width:0.66499996;stroke-linejoin:round;stroke-miterlimit:4;stroke-dasharray:none;stroke-dashoffset:0;stroke-opacity:1"
       id="path1576-7-9-4"
       sodipodi:sides="3"
       sodipodi:cx="47.843933"
       sodipodi:cy="52.06493"
       sodipodi:r1="4.5514359"
       sodipodi:r2="2.275718"
       sodipodi:arg1="-3.0584514"
       sodipodi:arg2="-2.0112539"
       inkscape:flatsided="true"
       inkscape:rounded="0"
       inkscape:randomized="0"
       d="m 43.308219,51.686954 7.130908,-3.36108 -0.654674,7.856088 z"
       inkscape:transform-center-x="1.9387866"
       inkscape:transform-center-y="0.86256995"
       transform="matrix(2.5000748,0.3032049,-0.2365503,0.92569843,29.520827,-3.7093599)" />
    <path
       sodipodi:type="star"
       style="fill:#000000;fill-opacity:1;stroke:#000000;stroke-width:0.66499996;stroke-linejoin:round;stroke-miterlimit:4;stroke-dasharray:none;stroke-dashoffset:0;stroke-opacity:1"
       id="path1576-7-9-4-5"
       sodipodi:sides="3"
       sodipodi:cx="47.843933"
       sodipodi:cy="52.06493"
       sodipodi:r1="4.5514359"
       sodipodi:r2="2.275718"
       sodipodi:arg1="-3.0584514"
       sodipodi:arg2="-2.0112539"
       inkscape:flatsided="true"
       inkscape:rounded="0"
       inkscape:randomized="0"
       d="m 43.308219,51.686954 7.130908,-3.36108 -0.654674,7.856088 z"
       inkscape:transform-center-x="2.2241219"
       inkscape:transform-center-y="1.0572338"
       transform="matrix(2.8680168,0.37163162,-0.27136398,1.1346083,7.2647634,0.80682956)" />
    <path
       sodipodi:type="star"
       style="fill:#000000;fill-opacity:1;stroke:#000000;stroke-width:0.66499996;stroke-linejoin:round;stroke-miterlimit:4;stroke-dasharray:none;stroke-dashoffset:0;stroke-opacity:1"
       id="path1576-7-9-4-9"
       sodipodi:sides="3"
       sodipodi:cx="47.843933"
       sodipodi:cy="52.06493"
       sodipodi:r1="4.5514359"
       sodipodi:r2="2.275718"
       sodipodi:arg1="-3.0584514"
       sodipodi:arg2="-2.0112539"
       inkscape:flatsided="true"
       inkscape:rounded="0"
       inkscape:randomized="0"
       d="m 43.308219,51.686954 7.130908,-3.36108 -0.654674,7.856088 z"
       inkscape:transform-center-x="0.55042461"
       inkscape:transform-center-y="-0.63266845"
       transform="matrix(2.0089329,1.488207,-0.67950322,0.69452209,57.89625,-15.861594)" />
    <path
       sodipodi:type="star"
       style="fill:#000000;fill-opacity:1;stroke:#000000;stroke-width:0.66499996;stroke-linejoin:round;stroke-miterlimit:4;stroke-dasharray:none;stroke-dashoffset:0;stroke-opacity:1"
       id="path1576-7-9-4-3"
       sodipodi:sides="3"
       sodipodi:cx="47.843933"
       sodipodi:cy="52.06493"
       sodipodi:r1="4.5514359"
       sodipodi:r2="2.275718"
       sodipodi:arg1="-3.0584514"
       sodipodi:arg2="-2.0112539"
       inkscape:flatsided="true"
       inkscape:rounded="0"
       inkscape:randomized="0"
       d="m 43.308219,51.686954 7.130908,-3.36108 -0.654674,7.856088 z"
       inkscape:transform-center-x="-0.61973243"
       inkscape:transform-center-y="-1.6359141"
       transform="matrix(0.98846841,1.5957192,-0.76696383,0.23251588,90.118849,10.952777)" />
    <path
       sodipodi:type="star"
       style="fill:#000000;fill-opacity:1;stroke:#000000;stroke-width:0.66499996;stroke-linejoin:round;stroke-miterlimit:4;stroke-dasharray:none;stroke-dashoffset:0;stroke-opacity:1"
       id="path1576-7-9-4-57"
       sodipodi:sides="3"
       sodipodi:cx="47.843933"
       sodipodi:cy="52.06493"
       sodipodi:r1="4.5514359"
       sodipodi:r2="2.275718"
       sodipodi:arg1="-3.0584514"
       sodipodi:arg2="-2.0112539"
       inkscape:flatsided="true"
       inkscape:rounded="0"
       inkscape:randomized="0"
       d="m 43.308219,51.686954 7.130908,-3.36108 -0.654674,7.856088 z"
       inkscape:transform-center-x="-1.1427128"
       inkscape:transform-center-y="-1.7961648"
       transform="matrix(0.80767414,1.5867536,-0.93580429,0.12465068,85.815624,18.357511)" />
    <path
       sodipodi:type="star"
       style="fill:#000000;fill-opacity:1;stroke:#000000;stroke-width:0.66499996;stroke-linejoin:round;stroke-miterlimit:4;stroke-dasharray:none;stroke-dashoffset:0;stroke-opacity:1"
       id="path1576-7-9-4-0"
       sodipodi:sides="3"
       sodipodi:cx="47.843933"
       sodipodi:cy="52.06493"
       sodipodi:r1="4.5514359"
       sodipodi:r2="2.275718"
       sodipodi:arg1="-3.0584514"
       sodipodi:arg2="-2.0112539"
       inkscape:flatsided="true"
       inkscape:rounded="0"
       inkscape:randomized="0"
       d="m 43.308219,51.686954 7.130908,-3.36108 -0.654674,7.856088 z"
       inkscape:transform-center-x="0.27593555"
       inkscape:transform-center-y="-1.2503757"
       transform="matrix(0.77170157,-0.67302979,0.38802569,1.4601608,-0.41832795,55.658911)" />
  </g>
</svg>
